<?xml version="1.0" encoding="utf-8"?>
<!-- Generator: Adobe Illustrator 25.2.3, SVG Export Plug-In . SVG Version: 6.00 Build 0)  -->
<svg version="1.1" id="Layer_1" xmlns="http://www.w3.org/2000/svg" xmlns:xlink="http://www.w3.org/1999/xlink" x="0px" y="0px"
	 viewBox="0 0 500 500" style="enable-background:new 0 0 500 500;" xml:space="preserve">
<style type="text/css">
	.st0{display:none;fill:#F9A63A;}
	.st1{fill:none;stroke:#000000;stroke-width:16;stroke-miterlimit:10;}
	.st2{stroke:#000000;stroke-miterlimit:10;}
	.st3{fill:#EA1F27;}
	.st4{stroke:#000000;stroke-width:7;stroke-miterlimit:10;}
</style>
<path class="st0" d="M391.36,476.87H107.95c-47.49,0-85.99-38.5-85.99-85.99V108.17c0-47.49,38.5-85.99,85.99-85.99h283.41
	c47.49,0,85.99,38.5,85.99,85.99v282.71C477.34,438.37,438.85,476.87,391.36,476.87z"/>
<g>
	<path class="st1" d="M84.12,324.7c-13.88,32.44-4.2,68.18,17.5,77.47c21.7,9.28,50.54-9.49,64.42-41.93
		c10.91-25.5,15.37-75.42,11.89-100.63c-0.22-1.57-0.25-4.3-0.12-5.52c0.5-4.61,3.15-4.48,2.13-6.08
		c-1.76-2.75-10.03-2.54-12.73-2.33C128.41,248.76,98,292.26,84.12,324.7z"/>
	<path class="st2" d="M276.21,235.58c7.04,3.06,15.28,0.56,19.16-6.06c2.78-4.73,4.38-10.31,4.38-16.28
		c0-17.13-13.17-31.02-29.43-31.02c-6.08,0-11.73,1.95-16.42,5.28c-5.09,3.62-11.99,3.62-17.08,0c-4.69-3.33-10.34-5.28-16.42-5.28
		c-16.25,0-29.43,13.89-29.43,31.02c0,6.02,1.63,11.63,4.44,16.38c3.91,6.6,12.14,9.09,19.17,6.02
		C233.22,227.52,257.52,227.47,276.21,235.58z"/>
	<path class="st3" d="M259.43,164.09c0,0,1.14,0,2.55,0s2.55,0,2.55,0s-1.14,0-2.55,0S259.43,164.09,259.43,164.09z"/>
	<path class="st1" d="M405.36,325.88c13.88,32.44,4.2,68.18-17.5,77.47c-21.7,9.28-50.54-9.49-64.42-41.93
		c-10.91-25.5-15.37-75.42-11.89-100.63c0.22-1.57,0.25-4.3,0.12-5.52c-0.5-4.61-3.15-4.48-2.13-6.08
		c1.76-2.75,10.03-2.54,12.73-2.33C361.07,249.94,391.49,293.44,405.36,325.88z"/>
	<g>
		<path d="M287.78,257.97c-18.09-14.96-81.45-16.88-92.01,6.06c-3.61,43.92,1.56,73.78,26.76,116.04l17.39-17.39
			c-7.65-12.25-13.88-25.25-17.19-39.62c12.48-4.9,25.58-6.28,38.9-5.01c3.26,0.32,6.49,0.3,9.56-1.02
			c5.88-2.04,5.77-9.51,1.99-13.44c-13.49-15.43-36.98-7.8-54.21-3.55c-0.2-8.67-2.02-19.17,0.85-27.08
			c17.34-6.3,35.91-5.82,53.15,0.54c3.64,1.61,17.32,7.91,20.59,6.3c2.99-1.47,1.99-6.6,2.75-9.52
			C296.97,267.7,293.57,262.27,287.78,257.97z"/>
		<path d="M254.63,389.57c0.04,0,0.08-0.01,0.12-0.01v-37.24c0-1.71-2.07-2.57-3.28-1.36l-11.14,11.14
			C238.8,369.34,256.04,380.9,254.63,389.57z"/>
		<path d="M254.02,394c5.39-12.21-9.73-21.06-14.1-31.34l-17.39,17.39C232.89,396.31,245.01,407.44,254.02,394z"/>
	</g>
	<g>
		<path d="M273.66,172.08c-16.8-9.53-37.48-9.53-54.28,0c-4.86,2.71-11.23,2.72-14.76-1.13c0,0,0,0,0,0
			c-3.53-3.82-1.43-11.41,5.45-15.31c22.56-12.8,50.34-12.8,72.9,0c6.88,3.9,8.98,11.49,5.45,15.31c0,0,0,0,0,0
			C284.88,174.81,278.52,174.79,273.66,172.08z"/>
	</g>
	<g>
		<path class="st4" d="M182.99,89.58c41.43,2.25,40.19,59.81,32.77,47.11c-0.53-0.9-0.71-1.96-0.61-3
			c1.99-19.84-13.06-36.97-32.33-40.25c-0.98-0.17-1.9-0.6-2.62-1.29c-1.16-1.11-0.99-1.58,0.89-2.28
			C181.69,89.64,182.35,89.54,182.99,89.58z"/>
	</g>
	<g>
		<path class="st4" d="M306.78,89.58c-41.43,2.25-40.19,59.81-32.77,47.11c0.53-0.9,0.71-1.96,0.61-3
			c-1.99-19.84,13.06-36.97,32.33-40.25c0.98-0.17,1.9-0.6,2.62-1.29c1.16-1.11,0.99-1.58-0.89-2.28
			C308.08,89.64,307.43,89.54,306.78,89.58z"/>
	</g>
</g>
</svg>
