<svg xmlns="http://www.w3.org/2000/svg" xmlns:xlink="http://www.w3.org/1999/xlink" xmlns:lucid="lucid" width="443" height="187"><g transform="translate(-417 -100)" lucid:page-tab-id="0_0"><path d="M340.1 111.32c0-3.3 2.7-6 6-6h228c3.32 0 6 2.7 6 6v160c0 3.3-2.68 6-6 6h-228c-3.3 0-6-2.7-6-6z" stroke="#000" stroke-opacity="0" stroke-width="3" fill="#fff" fill-opacity="0"/><use xlink:href="#a" transform="matrix(1,0,0,1,345.1014088802957,110.32051449159297) translate(89.15535058593753 138.1289279513887)"/><path d="M447.1 163.32c0-3.3 2.7-6 6-6h108c3.32 0 6 2.7 6 6v88c0 3.3-2.68 6-6 6h-108c-3.3 0-6-2.7-6-6z" stroke="#000" stroke-opacity="0" stroke-width="3" fill="#fff" fill-opacity="0"/><use xlink:href="#b" transform="matrix(1,0,0,1,452.1014088802957,162.32051449159297) translate(42.631953124999995 86.58854166666666)"/><path d="M515.1 127.82c0-3.3 2.7-6 6-6h80c3.32 0 6 2.7 6 6v122.5c0 3.3-2.68 6-6 6h-80c-3.3 0-6-2.7-6-6z" stroke="#000" stroke-opacity="0" stroke-width="3" fill="#fff" fill-opacity="0"/><use xlink:href="#c" transform="matrix(1,0,0,1,520.1014088802957,126.82051449159297) translate(8.510308159722221 121.63628472222223)"/><path d="M592.1 136.07c0-3.3 2.7-6 6-6h228c3.32 0 6 2.7 6 6v116.5c0 3.3-2.68 6-6 6h-228c-3.3 0-6-2.7-6-6z" stroke="#000" stroke-opacity="0" stroke-width="3" fill="#ff0"/><use xlink:href="#d" transform="matrix(1,0,0,1,604.1014088802957,142.07051449159303) translate(-3.1111111111111143 106.66666666666669)"/><path d="M501.98 155.25c.7 0 1.43-.1 2.15-.25.38-.08 1.15-.3 1.92-.58 1.47-.52 1.7-.77 1.82-.9.2-.25.28-.6.14-.9-.08-.2-.15-.37-.24-.52-.17-.38-.3-.7-.54-1.13-.42-.75-.82-1.3-1.38-1.9-.68-.75-1.36-1.42-2.48-2.02-1.08-.58-2.36-.9-3.56-.9-1.87 0-3.34.77-4.04 2.12-.66 1.33-.4 2.85.8 4.53.72 1.02 2.2 1.85 3.24 2.15.68.2 1.4.3 2.18.3zm0 0M510.47 152.82h.12c.57-.12 1.7-1.02 1.72-1.02.5-.43.9-.85 1.26-1.43.77-1.2.96-2.8.47-3.9-.35-.72-.94-1.15-1.64-1.15-.46 0-.97.2-1.5.58-.87.65-1.46 1.82-1.58 3.27-.1 1.25.1 2.5.6 3.3.1.23.32.35.55.35zm0 0M518.26 159.5c-1.05-2.85-3.5-4.73-6.25-4.83-.7 2-.6 4.73.3 7.3.98 2.83 2.75 5.08 4.6 5.88 1.83-2.18 2.46-5.43 1.36-8.35zm0 0" stroke="#000" stroke-opacity="0" stroke-width=".98"/><path d="M511 162.52c-.9-2.7-1.07-5.47-.48-7.72-.5.1-1 .25-1.45.47-1.08.5-2.34 1.6-3.56 3.05-.04 1.95.3 4.03 1.02 6.05.82 2.38 2.05 4.45 3.5 5.93.3.02.6.02.9.02 1.5 0 2.7-.2 3.53-.57.5-.23.9-.5 1.33-.8-2-1.15-3.74-3.48-4.77-6.43zm0 0M504.2 160.07l-.35.5c-1.64 2.58-2.62 5.08-2.62 6.75 0 .73.68 1.15 1.3 1.43.55.25 1.34.52 2.26.77 1 .25 2.1.45 3.17.6-1.13-1.47-2.06-3.25-2.74-5.2-.56-1.62-.9-3.25-1.03-4.85zm0 0" stroke="#000" stroke-opacity="0" stroke-width=".98"/><defs><path d="M704-1390c-164-38-297 28-288 194v114h231v143H416V0H231v-939H60v-143h171v-111c-12-274 208-416 483-347" id="e"/><use transform="matrix(0.07269943576388879,0,0,0.07269943576388879,0,0)" xlink:href="#e" id="a"/><path d="M416 0H126v-1536h290V0" id="f"/><use transform="matrix(0.045572916666666664,0,0,0.045572916666666664,0,0)" xlink:href="#f" id="b"/><path d="M503-687l240-395h216L605-547 970 0H756L506-405 256 0H41l365-547-354-535h214" id="g"/><use transform="matrix(0.06401909722222222,0,0,0.06401909722222222,0,0)" xlink:href="#g" id="c"/><path d="M115-194c53 0 69 39 70 98 0 66-23 100-70 100C84 3 66-7 56-30L54 0H23l1-261h32v101c10-23 28-34 59-34zm-8 174c40 0 45-34 45-75 0-40-5-75-45-74-42 0-51 32-51 76 0 43 10 73 51 73" id="h"/><path d="M100-194c63 0 86 42 84 106H49c0 40 14 67 53 68 26 1 43-12 49-29l28 8c-11 28-37 45-77 45C44 4 14-33 15-96c1-61 26-98 85-98zm52 81c6-60-76-77-97-28-3 7-6 17-6 28h103" id="i"/><g id="d"><use transform="matrix(0.3703703703703704,0,0,0.3703703703703704,0,0)" xlink:href="#h"/><use transform="matrix(0.3703703703703704,0,0,0.3703703703703704,74.07407407407408,0)" xlink:href="#i"/><use transform="matrix(0.3703703703703704,0,0,0.3703703703703704,148.14814814814815,0)" xlink:href="#i"/></g></defs></g></svg>