<svg id="Logo_and_Reference" data-name="Logo and Reference" xmlns="http://www.w3.org/2000/svg" viewBox="0 0 450.67 422.13"><defs><style>.cls-1{fill:#f9db22;}</style></defs><title>Fixbee Logo_SVG_File</title><g id="LOGO"><path id="Body" class="cls-1" d="M475.28,389.77c-17.65.54-25.37-7.68-42.51-6.11-11.62,1.07-19.06,5.22-33.26,16.17l0,0a.55.55,0,0,1-.18.14c-5.6,4.32-12.27,9.71-20.66,16.38-5,4-11.89,9.7-20,16.76-17.49,15.18-40.9,36.65-64.65,61.18-.89.93-1.79,1.84-2.7,2.79-9.65,10-19.31,20.59-28.65,31.37-.55.62-1.09,1.26-1.64,1.9-1.39,1.63-2.78,3.26-4.15,4.89-1.66,2-3.28,3.94-4.9,5.91l-1.38,1.69c-7.22,8.94-14.9,19.08-21.84,28.6-.66.91-1.31,1.83-2,2.72-2.75,3.8-5.43,7.58-8,11.25l-1.58,2.24c-.4.59-.8,1.15-1.2,1.71-2.91,4.15-5.74,8.2-8.44,12.12l-4,5.74-2.23,3.2-1.61,2.31L198.09,615h0L194,620.76c-.5.67-1,1.33-1.47,2-1.79,2.45-3.51,4.75-5.18,6.93-14.6,19.06-24.71,27-30,12.48a167.21,167.21,0,0,1-5.34-19.6c-.63-2.89-1.28-6-1.91-9.37v0c-.15-.79-.3-1.61-.45-2.44-.33-1.73-.63-3.51-.94-5.35s-.59-3.65-.87-5.55c-.14-.87-.27-1.74-.38-2.63-.1-.72-.21-1.44-.31-2.18l-3-32.63a.83.83,0,0,0,0-.2c0-.67,0-1.37-.08-2.07s0-1.12-.05-1.69c0-.42,0-.83-.06-1.26v0c0-.35,0-.7,0-1.06-.21-6.73-.26-13.67-.07-20.79q.19-8.64.89-17.53.57-7.24,1.51-14.6v0a266.09,266.09,0,0,1,8.31-40.82,216.13,216.13,0,0,1,17.91-43.88l.35-.64c.32-.58.64-1.18,1-1.77.07-.13.15-.25.23-.38,59-104.23,167.24-96.36,208-85.34,30.69,8.29,35.22,23.17,14.39-11.41a53.58,53.58,0,0,1-2.91-5.46,49.31,49.31,0,0,1-3.07-8.56c0-.19-.1-.36-.14-.56-.13-.52-.24-1.05-.36-1.55-.17-.79-.34-1.59-.47-2.38-.2-1-.35-2-.5-3a61.42,61.42,0,0,1-.53-12.18c0-.11,0-.23,0-.35a31.26,31.26,0,0,1,10.56-21.39c.27-.23.54-.42.8-.63.48-.35,1-.7,1.49-1,14.07-9.14,45.69-12.22,70.86-1.11,12.39,5.47,19.43,16.52,23,24.28,1.56,7.48,2.84,16.68,3.85,25.54,1.79,15.8,2.71,30.54,2.8,32.61C503.86,393.57,481.36,389.57,475.28,389.77Z" transform="translate(-74.07 -227.51)"/><g id="Accents"><path id="Eye" d="M476.47,336.32c-1.15,2.26-4.13,2.7-7.8,2.18-5.26-.74-8.46-2.86-9.26-5.79a4.85,4.85,0,0,1,4.58-6.19C473.42,325.69,478,333.44,476.47,336.32Zm-13.41-17.74c-11.3.51-13.08,12-9.68,17.71,3.84,6.44,11.23,8.85,21.61,8.51,7.22-.24,12-4,7.56-13.91C479.67,324.49,471.62,318.18,463.06,318.58Z" transform="translate(-74.07 -227.51)"/><path id="Bag" d="M399.48,399.85a.55.55,0,0,1-.18.14c-5.6,4.32-12.27,9.71-20.66,16.38-5,4-11.89,9.7-20,16.76-10.94,7.25-25.44,15.1-48.92,25.52-5.19,2.3-35.15,13.67-67.51,25.73-17.58,6.55-35.87,13.32-51.29,18.94C184.14,505.79,178,508,172.61,510c-10.23,3.69-17.36,6.17-19.34,6.68a29.54,29.54,0,0,1-8.66,1.14c-8.86-.29-21-5.76-41.6-28.31C79.92,464.19,64.16,438.25,81.32,428c20.88-12.45,33.27-11.23,22.52-23.41-5.89-6.67,10.43-1.08,23.68-3.8,16.25-3.31,24.91-2,34.42,4,2.28,1.43,29.25,28.64,39.62,39.51C219.73,463.44,240.84,462.45,256,461c17.77-1.65,46.19-16,62.16-21.85C336.94,432.29,397.57,400.84,399.48,399.85Z" transform="translate(-74.07 -227.51)"/><g id="Stripes"><path d="M192.49,622.75c-1.79,2.45-3.51,4.75-5.18,6.93-14.6,19.06-24.71,27-30,12.48a167.21,167.21,0,0,1-5.34-19.6c-.63-2.89-1.28-6-1.91-9.37v0c-.15-.79-.3-1.61-.45-2.44C163.27,618.89,181.57,623.1,192.49,622.75Z" transform="translate(-74.07 -227.51)"/><path d="M218.73,585.43l-1.58,2.24c-.4.59-.8,1.15-1.2,1.71-2.91,4.15-5.74,8.2-8.44,12.12l-4,5.74-2.23,3.2c-15.69.27-40.54-8.05-54.21-15.42l-3-32.63a.83.83,0,0,0,0-.2c0-.67,0-1.37-.08-2.07s0-1.12-.05-1.69c0-.42,0-.83-.06-1.26v0c0-.35,0-.7,0-1.06C163.67,568.24,191.23,582.19,218.73,585.43Z" transform="translate(-74.07 -227.51)"/><path d="M250.54,542.86c-7.22,8.94-14.9,19.08-21.84,28.6-34.84-4.87-62.1-19.58-85-36.16l.89-17.53a29.54,29.54,0,0,0,8.66-1.14c2-.51,9.11-3,19.34-6.68C190.89,527.65,218.73,537.56,250.54,542.86Z" transform="translate(-74.07 -227.51)"/><path d="M291.26,497.1c-9.65,10-19.31,20.59-28.65,31.37-.55.62-1.09,1.26-1.64,1.9-28.65-4.77-50.09-12.19-70.08-27.05,15.42-5.62,33.71-12.39,51.29-18.94C253.86,491.53,265,493.59,291.26,497.1Z" transform="translate(-74.07 -227.51)"/></g><path id="Wing" d="M390.13,375.14c2.38,1.77,1.46,6.33-1.47,6-72.23-8-191.06-42.53-247.11-61.88C56.7,290,96,198.54,167.37,236.67,200.14,254.18,354.53,348.64,390.13,375.14Z" transform="translate(-74.07 -227.51)"/><path id="Cap" d="M506.36,310.52l-7.49,0c-20.43,0-42.44-.51-66.33.81-18.06,1-33.66,2.72-39.14,2.14a49.31,49.31,0,0,1-3.07-8.56c0-.19-.1-.36-.14-.56-.13-.52-.24-1.05-.36-1.55-.17-.79-.34-1.59-.47-2.38-.2-1-.35-2-.5-3a53.72,53.72,0,0,1-.53-12.18c0-.11,0-.23,0-.35a31.26,31.26,0,0,1,10.56-21.39c.27-.23.54-.42.8-.63.48-.35,1-.7,1.49-1,14.07-9.14,45.69-12.22,70.86-1.11,12.39,5.47,19.43,16.52,23,24.28,2,4.27,4.1,11.93,4.82,12.82,1,1.3,2.4,1.84,4.48,2.56,3,1.06,7.07,2.23,18.2,5.48C528.74,307.63,521.44,310.32,506.36,310.52Z" transform="translate(-74.07 -227.51)"/></g></g></svg>