<svg id="Layer_1" data-name="Layer 1" xmlns="http://www.w3.org/2000/svg" viewBox="0 0 350.17 327.65"><defs><style>.cls-1{fill:none;stroke-width:16px;}.cls-1,.cls-5,.cls-6{stroke:#faa738;stroke-miterlimit:10;}.cls-2,.cls-6{fill:#faa738;}.cls-3{fill:#ec1c24;}.cls-4{fill:#faaf40;}.cls-5{fill:#fff;}.cls-5,.cls-6{stroke-width:7px;}</style></defs><path class="cls-1" d="M93.78,322.26c-13.88,32.44-4.2,68.18,17.5,77.47s50.54-9.49,64.42-41.93c10.91-25.5,15.37-75.41,11.89-100.63a29.71,29.71,0,0,1-.12-5.52c.5-4.61,3.15-4.48,2.12-6.08-1.76-2.74-10-2.54-12.72-2.33C138.07,246.32,107.66,289.82,93.78,322.26Z" transform="translate(-79.32 -83.63)"/><path class="cls-2" d="M285.87,233.14A15.14,15.14,0,0,0,305,227.08a32.06,32.06,0,0,0,4.38-16.28c0-17.13-13.17-31-29.42-31a28.15,28.15,0,0,0-16.42,5.28,14.82,14.82,0,0,1-17.08,0,28.18,28.18,0,0,0-16.42-5.28c-16.25,0-29.43,13.89-29.43,31a32.12,32.12,0,0,0,4.44,16.38,15.15,15.15,0,0,0,19.17,6C242.88,225.08,267.18,225,285.87,233.14Z" transform="translate(-79.32 -83.63)"/><path class="cls-3" d="M269.09,161.65h0Z" transform="translate(-79.32 -83.63)"/><path class="cls-1" d="M415,323.44c13.88,32.43,4.2,68.18-17.5,77.46S347,391.41,333.11,359c-10.91-25.5-15.37-75.42-11.89-100.64a29.53,29.53,0,0,0,.11-5.51c-.49-4.62-3.14-4.48-2.12-6.08,1.76-2.75,10-2.54,12.73-2.33C370.73,247.5,401.15,291,415,323.44Z" transform="translate(-79.32 -83.63)"/><path class="cls-4" d="M297.44,255.52c-18.08-15-81.45-16.88-92,6.06-3.61,43.92,1.55,73.78,26.76,116l17.39-17.4C241.93,348,235.7,335,232.4,320.6c12.47-4.9,25.57-6.28,38.89-5a19,19,0,0,0,9.56-1c5.88-2,5.77-9.51,2-13.44-13.49-15.43-37-7.81-54.21-3.55-.2-8.68-2-19.18.85-27.08,17.34-6.3,35.91-5.82,53.15.54,3.64,1.62,17.32,7.91,20.59,6.3,3-1.48,2-6.61,2.75-9.53C306.63,265.26,303.23,259.83,297.44,255.52Z" transform="translate(-79.32 -83.63)"/><path class="cls-4" d="M264.29,387.13h.12V349.89a1.92,1.92,0,0,0-3.28-1.36L250,359.67C248.46,366.9,265.7,378.46,264.29,387.13Z" transform="translate(-79.32 -83.63)"/><path class="cls-4" d="M263.68,391.56c5.39-12.21-9.73-21.06-14.1-31.34l-17.39,17.4C242.55,393.87,254.67,405,263.68,391.56Z" transform="translate(-79.32 -83.63)"/><path class="cls-2" d="M283.32,169.64a55.15,55.15,0,0,0-54.28,0c-4.86,2.71-11.23,2.73-14.76-1.13h0c-3.53-3.82-1.44-11.41,5.45-15.31a74,74,0,0,1,72.9,0c6.88,3.9,9,11.49,5.45,15.31h0C294.54,172.37,288.18,172.35,283.32,169.64Z" transform="translate(-79.32 -83.63)"/><path class="cls-5" d="M192.65,87.14c41.43,2.24,40.19,59.8,32.77,47.1a4.89,4.89,0,0,1-.61-3c2-19.84-13.06-37-32.33-40.25a5,5,0,0,1-2.62-1.29c-1.16-1.11-1-1.58.89-2.28A4.72,4.72,0,0,1,192.65,87.14Z" transform="translate(-79.32 -83.63)"/><path class="cls-6" d="M316.44,87.14c-41.43,2.24-40.19,59.8-32.76,47.1a5,5,0,0,0,.61-3c-2-19.84,13.06-37,32.32-40.25a5,5,0,0,0,2.62-1.29c1.17-1.11,1-1.58-.89-2.28A4.7,4.7,0,0,0,316.44,87.14Z" transform="translate(-79.32 -83.63)"/></svg>