<svg id="Layer_1" data-name="Layer 1" xmlns="http://www.w3.org/2000/svg" viewBox="0 0 685.31 204.83"><defs><style>.cls-1{fill:#fdfdfd;}.cls-2{fill:#faa738;}.cls-3{fill:#f9a737;}.cls-4{fill:#f8a637;}.cls-5{fill:none;}</style></defs><title>fixBee_logo</title><path class="cls-1" d="M680.57,384.85c-5.36,8.17-10.56,10.81-14.42,11.66-2.9.63-4.63.63-8.61,1.67-2.39.62-8,2.91-9.52,7.46-.09.28-.21.89-.44,2.12-1.07,5.78-.38,6.81,0,7.22s.78.71,1.16.63c5.29-1.15,10.67-.76,16-1a14.28,14.28,0,0,1,13.8,9.15c2.24,5.48,3.16,10.9,1.79,16.52-1.22,5-5.69,12.17-13.14,12.52-5.49.26-11,1.06-16.49,1.38-3.13.18-3.3.37-3.29,3.55s-.09,6.67,0,10c.62,17.71.24,35.44.63,53.14,0,2.22,1.41,7.68.44,14.58-1.08,7.74-3.88,11.63-5.59,13.56a20.28,20.28,0,0,1-3,2.81c-7,5.19-19.57,5.61-27.71-.39-5.33-3.93-8.82-8.91-8.57-15,.58-14.13.32-28.25.18-42.36-.12-11.21-.36-22.43-.34-33.64,0-1.54-.59-1.59-1.86-1.75-4.29-.56-8.53.3-12.81.09-3.43-.17-6.79-2.41-7.28-5.71-.85-5.85-2.25-11.73-1.38-17.66.45-3.07.64-6.19,1.34-9.22.6-2.6,4.17-5.81,6.91-5.9,4.29-.14,8.53-.78,12.8-1,1.46-.07,1.77-.51,1.75-1.86-.08-4.75,0-9.5-.05-14.24-.18-10.15,6.75-21.7,10-26.15a58,58,0,0,1,13.71-13.36c2.18-1.62,15.68-11.46,29.94-12.14a29.5,29.5,0,0,1,8.39.74,29,29,0,0,1,9.88,4.67,21.56,21.56,0,0,1,7.46,10.19C685.22,375.7,681.37,383.35,680.57,384.85Z" transform="translate(-579.89 -351.44)"/><path class="cls-2" d="M925.73,556.18c-11.49,0-23,0-34.49,0a13.9,13.9,0,0,1-8.72-2.7c-7.31-5.45-5.86-13.76.08-18.7,3.35-2.78,7.25-3.61,11.49-3.59,18.24.05,36.5-.2,54.74.21A34.25,34.25,0,0,0,962,529.15c3.64-1.36,7.52-3.08,9.81-6,4.49-5.74,8-12.1,8.76-19.74a31.31,31.31,0,0,0-5.5-21.9,32.81,32.81,0,0,0-20.49-13.44,32,32,0,0,0-7.73-.4c-17.84.26-35.68-.82-53.53-.51a16.49,16.49,0,0,1-13.64-6.38c-3-3.62-3.55-10,1.34-15.32a11.51,11.51,0,0,1,8.81-3.73c16.58-.11,33.18-.5,49.74.16a28.28,28.28,0,0,0,17.47-5c6.18-4.05,9.4-10,10.45-17.18A28.2,28.2,0,0,0,966,405.89c-1.75-4.87-5.06-8.3-9.1-11.27-4.48-3.28-9.43-4.11-14.92-4-16.41.24-32.83.11-49.24.06a40.24,40.24,0,0,1-6.4-.53c-3.77-.61-8.51-5.92-8.9-9.8-.53-5.21,1-9.43,5.7-12.24a6,6,0,0,1,3.26-.92q32.12,0,64.24,0c4.09,0,7.76,1.59,11.22,3.44a54.16,54.16,0,0,1,28.27,34.65,44.69,44.69,0,0,1,.56,22.69c-2,8-5.05,15.64-11,21.72-1.25,1.27-1.43,2.28.34,3.51a58.64,58.64,0,0,1,20.52,25.41,56.47,56.47,0,0,1,4.33,25.55,54.84,54.84,0,0,1-12.31,32.35s-9.78,12.32-25.31,18.39a21.1,21.1,0,0,1-3.67,1,18.17,18.17,0,0,1-3.12.27Z" transform="translate(-579.89 -351.44)"/><path class="cls-3" d="M1121.36,508.42c-7.65.27-15.28.76-22.93.74q-9.81,0-19.62.49c-4.6.24-11-4.07-11.65-10.78-.59-6.1,1.88-10.39,6.81-13.6a3.51,3.51,0,0,1,2.17-.42c8.65.41,17.27-.32,25.91-.54,2.48-.06,4.94-.68,7.44-.43,2.2.21,2.36-.7,1.54-2.49a36,36,0,0,0-32.3-20.83,36,36,0,0,0-22.93,8.34,35.57,35.57,0,0,0-6.5,47.61c7.56,10.64,18.09,15.74,31,15.36a32.77,32.77,0,0,0,19.56-7.11c2.76-2.17,5.48-4,9.46-3.47,6.73.94,11.58,9.07,9.76,15.57s-7.27,8.95-12.34,11.73a59.71,59.71,0,0,1-63.36-4.34c-10.3-7.71-17.91-17.51-21.54-30-6.07-20.85-2.6-39.85,11.56-56.59,9.39-11.09,21.4-17.5,35.71-19.85,17.19-2.83,32.57,1.34,46.28,11.83a56.39,56.39,0,0,1,21.88,35.8c1,5.19,1.21,8.1.63,11a16.88,16.88,0,0,1-5.51,9.92,8.74,8.74,0,0,1-3.77,1.88,8.59,8.59,0,0,1-2.77.18A35.22,35.22,0,0,0,1121.36,508.42Z" transform="translate(-579.89 -351.44)"/><path class="cls-1" d="M765.1,436.15c4.46-.52,7.33,2.26,10.51,5.23,6.64,6.21,11.83,13.66,18.11,20.17,4.17,4.32,8,9,11.89,13.56,1.09,1.28,1.83,1,2.67-.15,4.85-6.83,10.41-13.1,15.73-19.56,4-4.83,7.46-10.11,12.27-14.19a15.87,15.87,0,0,1,15.09-3.46c4.09,1.12,7,6.43,6.9,10.89-.23,7.31-4.28,12.67-8.51,18s-8.57,10.79-13.08,16c-3.66,4.21-7,8.66-10.61,12.93-1.09,1.29-1.12,2,0,3.24q10.31,11.73,20.58,23.5A76.34,76.34,0,0,1,856.47,534,14.9,14.9,0,0,1,858.94,545c-.18,1.08-.76,4.67-2.92,7.09-3.72,4.17-10.64,3.25-11.11,3.09-6.78-2.27-11.42-7.08-15.71-12.64-2.72-3.54-5.91-6.82-8.9-10.2-3.86-4.38-7.57-8.9-11.39-13.33-.81-.94-1.57-1.13-2.55.1q-9.52,11.79-19.31,23.38a48.44,48.44,0,0,1-5.93,7.23,16.47,16.47,0,0,1-1.4,1.25,19,19,0,0,1-2.07,1.35c-2.13,1.33-2.26,1.75-3.83,2.54a15.38,15.38,0,0,1-1.84.79,13,13,0,0,1-9.6-.72,12.11,12.11,0,0,1-3.15-2.28c-3.41-3.44-3.53-7.63-2.79-12.27.87-5.39,5-8.34,7.92-12.18,4.78-6.37,10-12.37,15.08-18.54,3.28-4,6.51-8.05,9.83-12,.66-.79.77-1.14,0-2-7.83-8.18-14.92-17-22.23-25.64-3.19-3.76-7-7-9.6-11.26s-5-8.67-3.93-13.95C754.42,440.25,760.06,436,765.1,436.15Z" transform="translate(-579.89 -351.44)"/><path class="cls-1" d="M704.22,517.86c0-8.49,0-17,0-25.46,0-14.46.17-28.93.17-43.39a5.38,5.38,0,0,1,1.18-3.59c3.33-4,7.54-6.75,12.23-7a14.79,14.79,0,0,1,8.17,2.2,15.77,15.77,0,0,1,3.51,3.13,14.32,14.32,0,0,1,1.83,2.72,15,15,0,0,1,1.37,4.34,16.37,16.37,0,0,1,.3,2.43c-.09,4.75.07,9.5-.08,14.24,0,0,0,.65,0,7.28,0,4.26.42,59.51-1.25,66.76a27.61,27.61,0,0,1-1.94,5.46c-.41.81-.8,1.48-1,1.78-2,3.12-7.35,6.05-13.09,5.47a15,15,0,0,1-7.74-3.18,9.68,9.68,0,0,1-3.81-5.15,7,7,0,0,1-.2-1.6C703.91,542.57,704,532.15,704.22,517.86Z" transform="translate(-579.89 -351.44)"/><path class="cls-4" d="M718.86,419.19c-11-.83-19-9.85-18.13-20.48s10.2-18.84,20.47-18.1,18.71,10.22,17.88,20.36C738.18,411.9,729.21,420,718.86,419.19Z" transform="translate(-579.89 -351.44)"/><path class="cls-1" d="M732.66,475.72c0,8.49,0,17,0,25.46-.06,14.46-.18,28.92-.17,43.39a5.38,5.38,0,0,1-1.18,3.59c-3.33,4-7.54,6.75-12.24,7a14.79,14.79,0,0,1-8.17-2.2,16,16,0,0,1-3.51-3.13,14.32,14.32,0,0,1-1.83-2.72,15.29,15.29,0,0,1-1.37-4.35,14.69,14.69,0,0,1-.29-2.43c.08-4.74-.08-9.49.07-14.24,0,0,0-.64,0-7.27,0-4.26-.43-59.51,1.24-66.76a27.27,27.27,0,0,1,1.95-5.46c.4-.81.79-1.48,1-1.78,2-3.12,7.36-6,13.09-5.47a14.93,14.93,0,0,1,7.74,3.18,9.58,9.58,0,0,1,3.81,5.15,6,6,0,0,1,.2,1.6C733,451,732.86,461.42,732.66,475.72Z" transform="translate(-579.89 -351.44)"/><line class="cls-5" x1="481.5" y1="85" x2="659.54" y2="85.34"/><path class="cls-3" d="M1248.36,508.42c-7.65.27-15.28.76-22.93.74q-9.81,0-19.62.49c-4.6.24-11-4.07-11.65-10.78-.59-6.1,1.88-10.39,6.81-13.6a3.51,3.51,0,0,1,2.17-.42c8.65.41,17.27-.32,25.91-.54,2.48-.06,4.94-.68,7.44-.43,2.2.21,2.36-.7,1.54-2.49a36,36,0,0,0-32.3-20.83,36,36,0,0,0-22.93,8.34,35.57,35.57,0,0,0-6.5,47.61c7.56,10.64,18.09,15.74,31,15.36a32.77,32.77,0,0,0,19.56-7.11c2.76-2.17,5.48-4,9.46-3.47,6.73.94,11.58,9.07,9.76,15.57s-7.27,8.95-12.34,11.73a59.71,59.71,0,0,1-63.36-4.34c-10.3-7.71-17.91-17.51-21.54-30-6.07-20.85-2.6-39.85,11.56-56.59,9.39-11.09,21.4-17.5,35.71-19.85,17.19-2.83,32.57,1.34,46.28,11.83a56.39,56.39,0,0,1,21.88,35.8c1,5.19,1.21,8.1.63,11a16.88,16.88,0,0,1-5.51,9.92,8.74,8.74,0,0,1-3.77,1.88,8.59,8.59,0,0,1-2.77.18A35.22,35.22,0,0,0,1248.36,508.42Z" transform="translate(-579.89 -351.44)"/></svg>