<?xml version="1.0" encoding="iso-8859-1"?>
<!-- Generator: Adobe Illustrator 19.0.0, SVG Export Plug-In . SVG Version: 6.00 Build 0)  -->
<svg version="1.1" id="Capa_1" xmlns="http://www.w3.org/2000/svg" xmlns:xlink="http://www.w3.org/1999/xlink" x="0px" y="0px"
	 viewBox="0 0 512 512" style="enable-background:new 0 0 512 512;" xml:space="preserve">
<path style="fill:#5E382C;" d="M421.132,180.04c-8.291,0-15-6.709-15-15v-30c0-41.353-33.647-75-75-75c-8.291,0-15-6.709-15-15
	s6.709-15,15-15c57.891,0,105,47.109,105,105v30C436.132,173.331,429.423,180.04,421.132,180.04z"/>
<path style="fill:#704639;" d="M91.132,180.04c-8.291,0-15-6.709-15-15v-30c0-57.891,47.109-105,105-105c8.291,0,15,6.709,15,15
	s-6.709,15-15,15c-41.353,0-75,33.647-75,75v30C106.132,173.331,99.423,180.04,91.132,180.04z"/>
<path style="fill:#FFA426;" d="M436,212H76c-9.001,0-15.901,7.8-14.7,16.8c9.598,87.9,17.098,155.101,26.999,243.301
	C90.7,494.9,109.9,512,132.999,512H379.3c23.101,0,42.299-17.1,44.7-39.899c9.9-88.2,17.4-155.401,27-243.301
	C451.899,219.8,445,212,436,212z"/>
<path style="fill:#FFBC36;" d="M451,152H61c-24.6,0-45,20.101-45,45c0,24.901,20.4,45,45,45h390c24.899,0,45-20.099,45-45
	C496,172.101,475.899,152,451,152z"/>
<path style="fill:#FFA426;" d="M301,0h-90c-24.6,0-45,20.101-45,45c0,24.901,20.4,45,45,45h90c24.899,0,45-20.099,45-45
	C346,20.101,325.899,0,301,0z"/>
<g>
	<path style="fill:#FF873C;" d="M301,90h-45V0h45c24.899,0,45,20.101,45,45C346,69.901,325.899,90,301,90z"/>
	<path style="fill:#FF873C;" d="M451,228.8c-9.6,87.9-17.1,155.101-27.001,243.301C421.599,494.9,402.4,512,379.3,512H256V212h180
		C445,212,451.899,219.8,451,228.8z"/>
</g>
<path style="fill:#FFA426;" d="M496,197c0,24.901-20.101,45-45,45H256v-90h195C475.899,152,496,172.101,496,197z"/>
<g>
</g>
<g>
</g>
<g>
</g>
<g>
</g>
<g>
</g>
<g>
</g>
<g>
</g>
<g>
</g>
<g>
</g>
<g>
</g>
<g>
</g>
<g>
</g>
<g>
</g>
<g>
</g>
<g>
</g>
</svg>
