<svg height="512" viewBox="0 0 128 128" width="512" xmlns="http://www.w3.org/2000/svg"><g><circle cx="64" cy="64" fill="#5b362a" r="62.25"/><circle cx="64" cy="64" fill="#f3d232" r="52.25"/><path d="m88.167 48.988h-11.349a20.05 20.05 0 0 0 -3.718-8.161h15.067a4 4 0 0 0 0-8h-48.333a4 4 0 0 0 0 8h17.224a12.171 12.171 0 0 1 11.471 8.161h-28.695a4 4 0 0 0 0 8h28.695a12.171 12.171 0 0 1 -11.471 8.161h-17.224a4 4 0 0 0 -2.829 6.829l32.032 32.032a4 4 0 1 0 5.656-5.658l-25.2-25.2h7.567a20.193 20.193 0 0 0 19.76-16.161h11.347a4 4 0 0 0 0-8z" fill="#dc4c12"/></g></svg>